<svg xmlns="http://www.w3.org/2000/svg" viewBox="0 0 1080 180" role="img" aria-labelledby="title desc">
  <title id="title">Deterministic 27-second call waveform</title>
  <desc id="desc">A precomputed waveform divided into the seven timed dialogue sections of the simulated seller verification call.</desc>
  <rect width="1080" height="180" rx="28" fill="#161616"/>
  <path d="M24 90h1032" stroke="#FFFFFF" stroke-opacity=".12" stroke-width="2"/>
  <g fill="#78B995">
    <rect x="32" y="72" width="6" height="36" rx="3"/><rect x="44" y="58" width="6" height="64" rx="3"/><rect x="56" y="39" width="6" height="102" rx="3"/><rect x="68" y="50" width="6" height="80" rx="3"/><rect x="80" y="65" width="6" height="50" rx="3"/><rect x="92" y="29" width="6" height="122" rx="3"/><rect x="104" y="42" width="6" height="96" rx="3"/><rect x="116" y="60" width="6" height="60" rx="3"/><rect x="128" y="48" width="6" height="84" rx="3"/><rect x="140" y="69" width="6" height="42" rx="3"/><rect x="152" y="54" width="6" height="72" rx="3"/><rect x="164" y="36" width="6" height="108" rx="3"/>
  </g>
  <g fill="#D4C5A0">
    <rect x="188" y="64" width="6" height="52" rx="3"/><rect x="200" y="45" width="6" height="90" rx="3"/><rect x="212" y="31" width="6" height="118" rx="3"/><rect x="224" y="52" width="6" height="76" rx="3"/><rect x="236" y="66" width="6" height="48" rx="3"/><rect x="248" y="41" width="6" height="98" rx="3"/><rect x="260" y="56" width="6" height="68" rx="3"/><rect x="272" y="70" width="6" height="40" rx="3"/><rect x="284" y="48" width="6" height="84" rx="3"/><rect x="296" y="61" width="6" height="58" rx="3"/><rect x="308" y="37" width="6" height="106" rx="3"/><rect x="320" y="55" width="6" height="70" rx="3"/>
  </g>
  <g fill="#78B995">
    <rect x="344" y="68" width="6" height="44" rx="3"/><rect x="356" y="48" width="6" height="84" rx="3"/><rect x="368" y="30" width="6" height="120" rx="3"/><rect x="380" y="44" width="6" height="92" rx="3"/><rect x="392" y="59" width="6" height="62" rx="3"/><rect x="404" y="38" width="6" height="104" rx="3"/><rect x="416" y="51" width="6" height="78" rx="3"/><rect x="428" y="67" width="6" height="46" rx="3"/><rect x="440" y="46" width="6" height="88" rx="3"/><rect x="452" y="34" width="6" height="112" rx="3"/><rect x="464" y="58" width="6" height="64" rx="3"/><rect x="476" y="42" width="6" height="96" rx="3"/><rect x="488" y="65" width="6" height="50" rx="3"/><rect x="500" y="53" width="6" height="74" rx="3"/><rect x="512" y="36" width="6" height="108" rx="3"/>
  </g>
  <g fill="#D4C5A0">
    <rect x="536" y="61" width="6" height="58" rx="3"/><rect x="548" y="39" width="6" height="102" rx="3"/><rect x="560" y="26" width="6" height="128" rx="3"/><rect x="572" y="48" width="6" height="84" rx="3"/><rect x="584" y="35" width="6" height="110" rx="3"/><rect x="596" y="57" width="6" height="66" rx="3"/><rect x="608" y="29" width="6" height="122" rx="3"/><rect x="620" y="44" width="6" height="92" rx="3"/><rect x="632" y="65" width="6" height="50" rx="3"/><rect x="644" y="33" width="6" height="114" rx="3"/><rect x="656" y="51" width="6" height="78" rx="3"/><rect x="668" y="40" width="6" height="100" rx="3"/><rect x="680" y="60" width="6" height="60" rx="3"/><rect x="692" y="36" width="6" height="108" rx="3"/><rect x="704" y="53" width="6" height="74" rx="3"/>
  </g>
  <g fill="#78B995">
    <rect x="728" y="70" width="6" height="40" rx="3"/><rect x="740" y="54" width="6" height="72" rx="3"/><rect x="752" y="35" width="6" height="110" rx="3"/><rect x="764" y="49" width="6" height="82" rx="3"/><rect x="776" y="62" width="6" height="56" rx="3"/><rect x="788" y="42" width="6" height="96" rx="3"/><rect x="800" y="58" width="6" height="64" rx="3"/><rect x="812" y="71" width="6" height="38" rx="3"/><rect x="824" y="52" width="6" height="76" rx="3"/>
  </g>
  <g fill="#D4C5A0">
    <rect x="848" y="65" width="6" height="50" rx="3"/><rect x="860" y="43" width="6" height="94" rx="3"/><rect x="872" y="28" width="6" height="124" rx="3"/><rect x="884" y="55" width="6" height="70" rx="3"/><rect x="896" y="37" width="6" height="106" rx="3"/><rect x="908" y="62" width="6" height="56" rx="3"/><rect x="920" y="46" width="6" height="88" rx="3"/><rect x="932" y="68" width="6" height="44" rx="3"/><rect x="944" y="52" width="6" height="76" rx="3"/>
  </g>
  <g fill="#78B995">
    <rect x="968" y="66" width="6" height="48" rx="3"/><rect x="980" y="47" width="6" height="86" rx="3"/><rect x="992" y="32" width="6" height="116" rx="3"/><rect x="1004" y="52" width="6" height="76" rx="3"/><rect x="1016" y="40" width="6" height="100" rx="3"/><rect x="1028" y="61" width="6" height="58" rx="3"/><rect x="1040" y="49" width="6" height="82" rx="3"/><rect x="1052" y="72" width="6" height="36" rx="3"/>
  </g>
  <g stroke="#FFF" stroke-opacity=".22" stroke-width="2" stroke-dasharray="3 5">
    <path d="M182 18v144"/><path d="M338 18v144"/><path d="M530 18v144"/><path d="M722 18v144"/><path d="M842 18v144"/><path d="M962 18v144"/>
  </g>
</svg>
