<svg xmlns="http://www.w3.org/2000/svg" viewBox="0 0 640 420" role="img" aria-labelledby="title desc">
  <title id="title">Nintendo Switch serial label evidence</title>
  <desc id="desc">Prepared close-up evidence card showing a fictional console serial label.</desc>
  <rect width="640" height="420" fill="#d8d6cf"/>
  <rect x="72" y="54" width="496" height="312" rx="28" fill="#171b19"/>
  <rect x="138" y="118" width="364" height="176" rx="10" fill="#f7f7f2"/>
  <text x="168" y="158" font-family="Arial, sans-serif" font-size="18" font-weight="700" fill="#111">CONSOLE SERIAL NUMBER</text>
  <text x="168" y="202" font-family="monospace" font-size="28" fill="#111">XKW7 1042 8831</text>
  <g fill="#111">
    <rect x="168" y="232" width="4" height="38"/><rect x="178" y="232" width="8" height="38"/><rect x="192" y="232" width="3" height="38"/><rect x="201" y="232" width="6" height="38"/><rect x="214" y="232" width="10" height="38"/><rect x="230" y="232" width="4" height="38"/><rect x="241" y="232" width="7" height="38"/><rect x="255" y="232" width="3" height="38"/><rect x="265" y="232" width="9" height="38"/><rect x="281" y="232" width="5" height="38"/><rect x="292" y="232" width="11" height="38"/><rect x="310" y="232" width="4" height="38"/><rect x="322" y="232" width="8" height="38"/><rect x="337" y="232" width="3" height="38"/><rect x="347" y="232" width="7" height="38"/><rect x="362" y="232" width="10" height="38"/><rect x="378" y="232" width="4" height="38"/><rect x="389" y="232" width="8" height="38"/><rect x="404" y="232" width="3" height="38"/><rect x="414" y="232" width="9" height="38"/><rect x="430" y="232" width="5" height="38"/>
  </g>
</svg>
